<svg xmlns="http://www.w3.org/2000/svg" viewBox="0 0 24 24">
  <rect x="0.75" y="0.75" width="22.5" height="22.5" rx="4.5" fill="#1d1f23"/>
  <g
    transform="translate(2.16 2.16) scale(0.82)"
    fill="none"
    stroke="#f1f2f4"
    stroke-width="2.2"
    stroke-linecap="round"
    stroke-linejoin="round"
  >
    <path d="M4 19.5v-15A2.5 2.5 0 0 1 6.5 2H19a1 1 0 0 1 1 1v18a1 1 0 0 1-1 1H6.5a1 1 0 0 1 0-5H20"/>
    <path d="M8 12v-2a4 4 0 0 1 8 0v2"/>
    <circle cx="15" cy="12" r="1"/>
    <circle cx="9" cy="12" r="1"/>
  </g>
</svg>
